<svg viewBox="0 0 1440 940" xmlns="http://www.w3.org/2000/svg" font-family="Segoe UI, Arial, sans-serif">
  <defs>
    <linearGradient id="hdr" x1="0" y1="0" x2="1" y2="1">
      <stop offset="0%" stop-color="#5aa2ff"/><stop offset="100%" stop-color="#9b8cff"/>
    </linearGradient>
    <marker id="ar" markerWidth="10" markerHeight="10" refX="8" refY="3" orient="auto">
      <polygon points="0 0, 9 3, 0 6" fill="#5aa2ff"/>
    </marker>
    <marker id="arg" markerWidth="10" markerHeight="10" refX="8" refY="3" orient="auto">
      <polygon points="0 0, 9 3, 0 6" fill="#2ee08a"/>
    </marker>
  </defs>

  <rect width="1440" height="940" fill="#0b1020"/>
  <text x="720" y="46" text-anchor="middle" font-size="30" font-weight="800" fill="#eaf0fb">TokenNinja — Round 3 Architecture</text>
  <text x="720" y="72" text-anchor="middle" font-size="15" fill="#9fb0d0">Three pipelines · shared SP100 corpus · same model &amp; embeddings · TigerGraph Savanna = graph + vector DB</text>

  <!-- Input -->
  <rect x="600" y="98" width="240" height="46" rx="10" fill="url(#hdr)"/>
  <text x="720" y="127" text-anchor="middle" font-size="16" font-weight="700" fill="#fff">User question (50-Q eval set)</text>
  <path d="M720 144 L720 176" stroke="#5aa2ff" stroke-width="2" marker-end="url(#ar)"/>

  <!-- Corpus band -->
  <rect x="60" y="180" width="1320" height="34" rx="8" fill="#0f1526" stroke="#2a3654"/>
  <text x="720" y="202" text-anchor="middle" font-size="13" fill="#9fb0d0">Corpus: 100 S&amp;P companies × {10-K, 8-K, DEF14A} → chunks + Company/Sector/Filing graph (same data feeds every pipeline)</text>

  <!-- LANE 1: LLM-Only -->
  <g>
    <rect x="60" y="240" width="380" height="360" rx="12" fill="#131a2e" stroke="#667eea" stroke-width="2"/>
    <rect x="60" y="240" width="380" height="42" rx="12" fill="#667eea"/>
    <text x="250" y="268" text-anchor="middle" font-size="16" font-weight="700" fill="#fff">1 · LLM-Only (baseline)</text>
    <rect x="90" y="310" width="320" height="60" rx="8" fill="#fff"/>
    <text x="250" y="336" text-anchor="middle" font-size="14" font-weight="600" fill="#222">Question → Gemini 2.5 Flash</text>
    <text x="250" y="356" text-anchor="middle" font-size="12" fill="#555">no retrieval · parametric only</text>
    <rect x="90" y="500" width="320" height="70" rx="8" fill="#1b1030" stroke="#ff6b6b"/>
    <text x="250" y="530" text-anchor="middle" font-size="13" font-weight="700" fill="#ff8a8a">125 tokens · grade 0.71/3</text>
    <text x="250" y="552" text-anchor="middle" font-size="12" fill="#9fb0d0">only 15% figures correct</text>
  </g>

  <!-- LANE 2: Traditional RAG -->
  <g>
    <rect x="470" y="240" width="380" height="360" rx="12" fill="#131a2e" stroke="#f5b544" stroke-width="2"/>
    <rect x="470" y="240" width="380" height="42" rx="12" fill="#f5b544"/>
    <text x="660" y="268" text-anchor="middle" font-size="16" font-weight="700" fill="#1b1400">2 · Traditional RAG</text>
    <rect x="500" y="308" width="320" height="52" rx="8" fill="#fff"/>
    <text x="660" y="330" text-anchor="middle" font-size="14" font-weight="600" fill="#222">TigerGraph VECTOR search</text>
    <text x="660" y="348" text-anchor="middle" font-size="12" fill="#555">top-k=8 · all-MiniLM-L6-v2 (384d)</text>
    <path d="M660 360 L660 388" stroke="#f5b544" stroke-width="2" marker-end="url(#ar)"/>
    <rect x="500" y="388" width="320" height="46" rx="8" fill="#fff"/>
    <text x="660" y="416" text-anchor="middle" font-size="13" fill="#222">raw chunks → Gemini</text>
    <rect x="500" y="500" width="320" height="70" rx="8" fill="#241a05" stroke="#f5b544"/>
    <text x="660" y="530" text-anchor="middle" font-size="13" font-weight="700" fill="#f5c86a">4,137 tokens · grade 1.26/3</text>
    <text x="660" y="552" text-anchor="middle" font-size="12" fill="#9fb0d0">good-faith baseline</text>
  </g>

  <!-- LANE 3: GraphRAG -->
  <g>
    <rect x="880" y="240" width="500" height="360" rx="12" fill="#10241a" stroke="#2ee08a" stroke-width="3"/>
    <rect x="880" y="240" width="500" height="42" rx="12" fill="#2ee08a"/>
    <text x="1130" y="268" text-anchor="middle" font-size="16" font-weight="800" fill="#04110a">3 · Optimized GraphRAG ✓</text>
    <rect x="910" y="300" width="440" height="40" rx="8" fill="#fff"/>
    <text x="1130" y="325" text-anchor="middle" font-size="13" font-weight="600" fill="#222">① VECTOR seed (TigerGraph, high recall)</text>
    <path d="M1130 340 L1130 356" stroke="#2ee08a" stroke-width="2" marker-end="url(#arg)"/>
    <rect x="910" y="356" width="440" height="40" rx="8" fill="#fff"/>
    <text x="1130" y="381" text-anchor="middle" font-size="13" font-weight="600" fill="#222">② 2-HOP graph fusion (Company/Filing/Sector + bridges)</text>
    <path d="M1130 396 L1130 412" stroke="#2ee08a" stroke-width="2" marker-end="url(#arg)"/>
    <rect x="910" y="412" width="440" height="56" rx="8" fill="#fff"/>
    <text x="1130" y="434" text-anchor="middle" font-size="13" font-weight="700" fill="#12633a">③ CONTEXT OPTIMIZER (deterministic · 0 extra tokens)</text>
    <text x="1130" y="454" text-anchor="middle" font-size="12" fill="#555">dedup · MMR · graph-boost · adaptive sentence compression</text>
    <path d="M1130 468 L1130 484" stroke="#2ee08a" stroke-width="2" marker-end="url(#arg)"/>
    <rect x="910" y="484" width="440" height="34" rx="8" fill="#fff"/>
    <text x="1130" y="506" text-anchor="middle" font-size="13" fill="#222">④ compact evidence + citations → Gemini</text>
    <rect x="910" y="530" width="440" height="46" rx="8" fill="#0d2a1c" stroke="#2ee08a" stroke-width="2"/>
    <text x="1130" y="558" text-anchor="middle" font-size="14" font-weight="800" fill="#2ee08a">2,030 tokens (−51%) · grade 1.47/3 · pass 34%</text>
  </g>

  <!-- Arrows from input to lanes -->
  <path d="M660 176 C 400 200, 250 210, 250 240" stroke="#5aa2ff" stroke-width="1.5" fill="none" marker-end="url(#ar)"/>
  <path d="M720 176 L 660 240" stroke="#5aa2ff" stroke-width="1.5" fill="none" marker-end="url(#ar)"/>
  <path d="M780 176 C 1050 200, 1130 210, 1130 240" stroke="#5aa2ff" stroke-width="1.5" fill="none" marker-end="url(#ar)"/>

  <!-- TigerGraph Savanna block -->
  <rect x="360" y="636" width="720" height="86" rx="12" fill="#131a2e" stroke="#9b8cff" stroke-width="2"/>
  <text x="720" y="664" text-anchor="middle" font-size="16" font-weight="800" fill="#c9beff">TigerGraph Savanna — graph + vector database</text>
  <text x="720" y="688" text-anchor="middle" font-size="12.5" fill="#9fb0d0">Vertices: Company · Sector · Filing · Chunk(emb: native VECTOR, HNSW/cosine)</text>
  <text x="720" y="707" text-anchor="middle" font-size="12.5" fill="#9fb0d0">Edges: FILED · HAS_CHUNK · IN_SECTOR   |   kNN vectorSearch() + multi-hop traversal in-database</text>
  <path d="M660 570 C 640 610, 660 620, 680 636" stroke="#f5b544" stroke-width="1.5" fill="none" marker-end="url(#ar)"/>
  <path d="M1050 576 C 1000 610, 900 620, 840 660" stroke="#2ee08a" stroke-width="1.5" fill="none" marker-end="url(#arg)"/>

  <!-- Evaluation + controls -->
  <rect x="60" y="636" width="280" height="86" rx="12" fill="#0f1526" stroke="#2a3654"/>
  <text x="200" y="662" text-anchor="middle" font-size="14" font-weight="700" fill="#eaf0fb">Evaluation</text>
  <text x="200" y="684" text-anchor="middle" font-size="11.5" fill="#9fb0d0">LLM-judge (evidence-blind)</text>
  <text x="200" y="701" text-anchor="middle" font-size="11.5" fill="#9fb0d0">BERTScore · numeric-match · citations</text>

  <rect x="1100" y="636" width="280" height="86" rx="12" fill="#0f1526" stroke="#2a3654"/>
  <text x="1240" y="662" text-anchor="middle" font-size="14" font-weight="700" fill="#eaf0fb">Controls</text>
  <text x="1240" y="684" text-anchor="middle" font-size="11.5" fill="#9fb0d0">same model/temp/cap/prompt</text>
  <text x="1240" y="701" text-anchor="middle" font-size="11.5" fill="#9fb0d0">3 runs · git-traceable · ablation</text>

  <!-- Results footer -->
  <rect x="60" y="750" width="1320" height="120" rx="12" fill="#0d1424" stroke="#2a3654"/>
  <text x="720" y="782" text-anchor="middle" font-size="16" font-weight="800" fill="#2ee08a">Result: valid ordering LLM-Only (0.71) &lt; RAG (1.26) &lt; GraphRAG (1.47)  ·  −51% tokens  ·  balanced latency</text>
  <text x="300" y="820" text-anchor="middle" font-size="13" fill="#9fb0d0">Ablation: − graph → 1.00 (graph = +0.46)</text>
  <text x="720" y="820" text-anchor="middle" font-size="13" fill="#9fb0d0">− compression → 2× tokens, ~no accuracy loss</text>
  <text x="1140" y="820" text-anchor="middle" font-size="13" fill="#9fb0d0">GraphRAG wins every hop tier (edge grows with hops)</text>
  <text x="720" y="850" text-anchor="middle" font-size="12" fill="#667a9e">Backend: FastAPI-free Python · pyTigerGraph · google-genai · sentence-transformers · #GraphRAGInferenceHackathon</text>
</svg>
